<svg width="42" height="42" viewBox="0 0 42 42" fill="none" xmlns="http://www.w3.org/2000/svg">
<path d="M21.0003 0.965088C18.2645 0.965088 15.5554 1.50396 13.0278 2.55093C10.5001 3.5979 8.20349 5.13248 6.26893 7.06703C2.36193 10.974 0.166992 16.2731 0.166992 21.7984C0.166992 31.0068 6.14616 38.8193 14.417 41.5901C15.4587 41.7568 15.792 41.1109 15.792 40.5484V37.0276C10.0212 38.2776 8.79199 34.2359 8.79199 34.2359C7.83366 31.8193 6.47949 31.1734 6.47949 31.1734C4.58366 29.8818 6.62533 29.9234 6.62533 29.9234C8.70866 30.0693 9.81283 32.0693 9.81283 32.0693C11.6253 35.2359 14.6878 34.2984 15.8753 33.7984C16.0628 32.4443 16.6045 31.5276 17.1878 31.0068C12.5628 30.4859 7.70866 28.6943 7.70866 20.7568C7.70866 18.4443 8.50033 16.5901 9.85449 15.1109C9.64616 14.5901 8.91699 12.4234 10.0628 9.61092C10.0628 9.61092 11.8128 9.04842 15.792 11.7359C17.4378 11.2776 19.2295 11.0484 21.0003 11.0484C22.7712 11.0484 24.5628 11.2776 26.2087 11.7359C30.1878 9.04842 31.9378 9.61092 31.9378 9.61092C33.0837 12.4234 32.3545 14.5901 32.1462 15.1109C33.5003 16.5901 34.292 18.4443 34.292 20.7568C34.292 28.7151 29.417 30.4651 24.7712 30.9859C25.5212 31.6318 26.2087 32.9026 26.2087 34.8401V40.5484C26.2087 41.1109 26.542 41.7776 27.6045 41.5901C35.8753 38.7984 41.8337 31.0068 41.8337 21.7984C41.8337 19.0625 41.2948 16.3535 40.2478 13.8258C39.2008 11.2982 37.6663 9.00158 35.7317 7.06703C33.7972 5.13248 31.5005 3.5979 28.9729 2.55093C26.4453 1.50396 23.7362 0.965088 21.0003 0.965088Z" fill="#C4C4C4"/>
</svg>
