<svg width="50" height="51" viewBox="0 0 50 51" fill="none" xmlns="http://www.w3.org/2000/svg">
<path d="M33.3337 17.3367C36.6489 17.3367 39.8283 18.6536 42.1725 20.9978C44.5167 23.342 45.8337 26.5215 45.8337 29.8367V44.42H37.5003V29.8367C37.5003 28.7316 37.0613 27.6718 36.2799 26.8904C35.4985 26.109 34.4387 25.67 33.3337 25.67C32.2286 25.67 31.1688 26.109 30.3874 26.8904C29.606 27.6718 29.167 28.7316 29.167 29.8367V44.42H20.8337V29.8367C20.8337 26.5215 22.1506 23.342 24.4948 20.9978C26.839 18.6536 30.0185 17.3367 33.3337 17.3367ZM4.16699 19.42H12.5003V44.42H4.16699V19.42Z" stroke="#C4C4C4" stroke-width="4.16667" stroke-linecap="round" stroke-linejoin="round"/>
<path d="M8.33366 13.17C10.6348 13.17 12.5003 11.3045 12.5003 9.00334C12.5003 6.70215 10.6348 4.83667 8.33366 4.83667C6.03247 4.83667 4.16699 6.70215 4.16699 9.00334C4.16699 11.3045 6.03247 13.17 8.33366 13.17Z" stroke="#C4C4C4" stroke-width="4.16667" stroke-linecap="round" stroke-linejoin="round"/>
</svg>
