<svg width="44" height="37" viewBox="0 0 44 37" fill="none" xmlns="http://www.w3.org/2000/svg">
<path d="M43.7913 4.83341C42.1872 5.56258 40.458 6.04175 38.6663 6.27091C40.4997 5.16675 41.9163 3.41675 42.583 1.31258C40.8538 2.35425 38.9372 3.08341 36.9163 3.50008C35.2705 1.70841 32.958 0.666748 30.333 0.666748C25.4372 0.666748 21.4372 4.66675 21.4372 9.60425C21.4372 10.3126 21.5205 11.0001 21.6663 11.6459C14.2497 11.2709 7.64551 7.70841 3.24967 2.31258C2.47884 3.62508 2.04134 5.16675 2.04134 6.79175C2.04134 9.89591 3.60384 12.6459 6.02051 14.2084C4.54134 14.2084 3.16634 13.7917 1.95801 13.1667V13.2292C1.95801 17.5626 5.04134 21.1876 9.12467 22.0001C7.81369 22.3588 6.43737 22.4088 5.10384 22.1459C5.66969 23.9219 6.77788 25.4759 8.27263 26.5895C9.76737 27.7031 11.5735 28.3203 13.4372 28.3542C10.2781 30.8552 6.36217 32.207 2.33301 32.1876C1.62467 32.1876 0.916341 32.1459 0.208008 32.0626C4.16634 34.6042 8.87467 36.0834 13.9163 36.0834C30.333 36.0834 39.3538 22.4584 39.3538 10.6459C39.3538 10.2501 39.3538 9.87508 39.333 9.47925C41.083 8.22925 42.583 6.64591 43.7913 4.83341V4.83341Z" fill="#C4C4C4"/>
</svg>
