<svg width="42" height="41" viewBox="0 0 42 41" fill="none" xmlns="http://www.w3.org/2000/svg">
<path d="M21.0003 0.25C18.2645 0.25 15.5554 0.78887 13.0278 1.83584C10.5001 2.88282 8.20349 4.41739 6.26893 6.35194C2.36193 10.2589 0.166992 15.558 0.166992 21.0833C0.166992 30.2917 6.14616 38.1042 14.417 40.875C15.4587 41.0417 15.792 40.3958 15.792 39.8333V36.3125C10.0212 37.5625 8.79199 33.5208 8.79199 33.5208C7.83366 31.1042 6.47949 30.4583 6.47949 30.4583C4.58366 29.1667 6.62533 29.2083 6.62533 29.2083C8.70866 29.3542 9.81283 31.3542 9.81283 31.3542C11.6253 34.5208 14.6878 33.5833 15.8753 33.0833C16.0628 31.7292 16.6045 30.8125 17.1878 30.2917C12.5628 29.7708 7.70866 27.9792 7.70866 20.0417C7.70866 17.7292 8.50033 15.875 9.85449 14.3958C9.64616 13.875 8.91699 11.7083 10.0628 8.89583C10.0628 8.89583 11.8128 8.33333 15.792 11.0208C17.4378 10.5625 19.2295 10.3333 21.0003 10.3333C22.7712 10.3333 24.5628 10.5625 26.2087 11.0208C30.1878 8.33333 31.9378 8.89583 31.9378 8.89583C33.0837 11.7083 32.3545 13.875 32.1462 14.3958C33.5003 15.875 34.292 17.7292 34.292 20.0417C34.292 28 29.417 29.75 24.7712 30.2708C25.5212 30.9167 26.2087 32.1875 26.2087 34.125V39.8333C26.2087 40.3958 26.542 41.0625 27.6045 40.875C35.8753 38.0833 41.8337 30.2917 41.8337 21.0833C41.8337 18.3475 41.2948 15.6384 40.2478 13.1108C39.2008 10.5831 37.6663 8.2865 35.7317 6.35194C33.7972 4.41739 31.5005 2.88282 28.9729 1.83584C26.4453 0.78887 23.7362 0.25 21.0003 0.25V0.25Z" fill="#C4C4C4"/>
</svg>
