<svg width="42" height="42" viewBox="0 0 42 42" fill="none" xmlns="http://www.w3.org/2000/svg">
<path d="M0.175353 41.6667L2.99202 31.3167C1.13606 28.1351 0.16097 24.5166 0.16702 20.8333C0.16702 9.32708 9.4941 0 21.0004 0C32.5066 0 41.8337 9.32708 41.8337 20.8333C41.8337 32.3396 32.5066 41.6667 21.0004 41.6667C17.3186 41.6726 13.7017 40.6983 10.5212 38.8437L0.175353 41.6667ZM13.4816 11.0583C13.2126 11.075 12.9497 11.1459 12.7087 11.2667C12.4827 11.3946 12.2764 11.5546 12.0962 11.7417C11.8462 11.9771 11.7045 12.1812 11.5524 12.3792C10.7825 13.3812 10.3683 14.6113 10.3754 15.875C10.3795 16.8958 10.6462 17.8896 11.0629 18.8187C11.9149 20.6979 13.317 22.6875 15.1691 24.5312C15.6149 24.975 16.0504 25.4208 16.5191 25.8354C18.8178 27.8593 21.5571 29.3188 24.5191 30.0979L25.7045 30.2792C26.0899 30.3 26.4754 30.2708 26.8629 30.2521C27.4696 30.2208 28.062 30.0565 28.5983 29.7708C28.8711 29.6303 29.1373 29.4774 29.3962 29.3125C29.3962 29.3125 29.4858 29.2542 29.6566 29.125C29.9379 28.9167 30.1108 28.7687 30.3441 28.525C30.517 28.3458 30.667 28.1354 30.7816 27.8958C30.9441 27.5562 31.1066 26.9083 31.1733 26.3687C31.2233 25.9562 31.2087 25.7312 31.2024 25.5917C31.1941 25.3687 31.0087 25.1375 30.8066 25.0396L29.5941 24.4958C29.5941 24.4958 27.7816 23.7062 26.6754 23.2021C26.5587 23.1512 26.4337 23.1223 26.3066 23.1167C26.1641 23.102 26.02 23.1181 25.8842 23.1637C25.7484 23.2093 25.6239 23.2835 25.5191 23.3812V23.3771C25.5087 23.3771 25.3691 23.4958 23.8629 25.3208C23.7764 25.437 23.6573 25.5248 23.5208 25.573C23.3842 25.6213 23.2364 25.6278 23.0962 25.5917C22.9604 25.5554 22.8275 25.5094 22.6983 25.4542C22.4399 25.3458 22.3504 25.3042 22.1733 25.2271L22.1629 25.2229C20.971 24.7026 19.8675 23.9997 18.892 23.1396C18.6295 22.9104 18.3858 22.6604 18.1358 22.4187C17.3161 21.6338 16.6018 20.7459 16.0108 19.7771L15.8879 19.5792C15.7996 19.4462 15.7282 19.3027 15.6754 19.1521C15.5962 18.8458 15.8024 18.6 15.8024 18.6C15.8024 18.6 16.3087 18.0458 16.5441 17.7458C16.7401 17.4965 16.923 17.2371 17.092 16.9688C17.3379 16.5729 17.4149 16.1667 17.2858 15.8521C16.7024 14.4271 16.0983 13.0083 15.4774 11.6C15.3545 11.3208 14.9899 11.1208 14.6587 11.0812C14.5462 11.0687 14.4337 11.0562 14.3212 11.0479C14.0414 11.034 13.761 11.0368 13.4816 11.0562V11.0583Z" fill="#C4C4C4"/>
</svg>
