<svg width="42" height="42" viewBox="0 0 42 42" fill="none" xmlns="http://www.w3.org/2000/svg">
<path d="M12.2503 0.083374H29.7503C36.417 0.083374 41.8337 5.50004 41.8337 12.1667V29.6667C41.8337 32.8714 40.5606 35.9448 38.2945 38.2109C36.0285 40.477 32.955 41.75 29.7503 41.75H12.2503C5.58366 41.75 0.166992 36.3334 0.166992 29.6667V12.1667C0.166992 8.96201 1.44005 5.88856 3.70612 3.6225C5.97218 1.35644 9.04563 0.083374 12.2503 0.083374M11.8337 4.25004C9.84453 4.25004 7.93688 5.04022 6.53036 6.44674C5.12384 7.85326 4.33366 9.76092 4.33366 11.75V30.0834C4.33366 34.2292 7.68783 37.5834 11.8337 37.5834H30.167C32.1561 37.5834 34.0638 36.7932 35.4703 35.3867C36.8768 33.9802 37.667 32.0725 37.667 30.0834V11.75C37.667 7.60421 34.3128 4.25004 30.167 4.25004H11.8337ZM31.9378 7.37504C32.6285 7.37504 33.2909 7.64941 33.7793 8.13778C34.2676 8.62616 34.542 9.28854 34.542 9.97921C34.542 10.6699 34.2676 11.3323 33.7793 11.8206C33.2909 12.309 32.6285 12.5834 31.9378 12.5834C31.2472 12.5834 30.5848 12.309 30.0964 11.8206C29.608 11.3323 29.3337 10.6699 29.3337 9.97921C29.3337 9.28854 29.608 8.62616 30.0964 8.13778C30.5848 7.64941 31.2472 7.37504 31.9378 7.37504ZM21.0003 10.5C23.763 10.5 26.4125 11.5975 28.366 13.551C30.3195 15.5045 31.417 18.154 31.417 20.9167C31.417 23.6794 30.3195 26.3289 28.366 28.2824C26.4125 30.2359 23.763 31.3334 21.0003 31.3334C18.2377 31.3334 15.5881 30.2359 13.6346 28.2824C11.6811 26.3289 10.5837 23.6794 10.5837 20.9167C10.5837 18.154 11.6811 15.5045 13.6346 13.551C15.5881 11.5975 18.2377 10.5 21.0003 10.5M21.0003 14.6667C19.3427 14.6667 17.753 15.3252 16.5809 16.4973C15.4088 17.6694 14.7503 19.2591 14.7503 20.9167C14.7503 22.5743 15.4088 24.164 16.5809 25.3361C17.753 26.5082 19.3427 27.1667 21.0003 27.1667C22.6579 27.1667 24.2476 26.5082 25.4197 25.3361C26.5918 24.164 27.2503 22.5743 27.2503 20.9167C27.2503 19.2591 26.5918 17.6694 25.4197 16.4973C24.2476 15.3252 22.6579 14.6667 21.0003 14.6667Z" fill="#C4C4C4"/>
</svg>
