<svg width="45" height="45" viewBox="0 0 45 45" fill="none" xmlns="http://www.w3.org/2000/svg">
<path d="M3.75753 41.25L6.29253 31.935C4.62216 29.0716 3.74458 25.815 3.75003 22.5C3.75003 12.1444 12.1444 3.75 22.5 3.75C32.8557 3.75 41.25 12.1444 41.25 22.5C41.25 32.8556 32.8557 41.25 22.5 41.25C19.1865 41.2554 15.9313 40.3784 13.0688 38.7094L3.75753 41.25ZM15.7332 13.7025C15.491 13.7175 15.2544 13.7813 15.0375 13.89C14.8341 14.0052 14.6485 14.1492 14.4863 14.3175C14.2613 14.5294 14.1338 14.7131 13.9969 14.8913C13.3039 15.7931 12.9312 16.9002 12.9375 18.0375C12.9413 18.9563 13.1813 19.8506 13.5563 20.6869C14.3232 22.3781 15.585 24.1688 17.2519 25.8281C17.6532 26.2275 18.045 26.6288 18.4669 27.0019C20.5358 28.8234 23.0011 30.137 25.6669 30.8381L26.7338 31.0013C27.0807 31.02 27.4275 30.9938 27.7763 30.9769C28.3223 30.9487 28.8556 30.8008 29.3382 30.5438C29.5837 30.4173 29.8233 30.2796 30.0563 30.1313C30.0563 30.1313 30.1369 30.0788 30.2907 29.9625C30.5438 29.775 30.6994 29.6419 30.9094 29.4225C31.065 29.2613 31.2 29.0719 31.3032 28.8563C31.4494 28.5506 31.5957 27.9675 31.6557 27.4819C31.7007 27.1106 31.6875 26.9081 31.6819 26.7825C31.6744 26.5819 31.5075 26.3738 31.3257 26.2856L30.2344 25.7963C30.2344 25.7963 28.6032 25.0856 27.6075 24.6319C27.5026 24.5861 27.3901 24.5601 27.2757 24.555C27.1474 24.5418 27.0177 24.5563 26.8955 24.5973C26.7732 24.6384 26.6612 24.7052 26.5669 24.7931V24.7894C26.5575 24.7894 26.4319 24.8963 25.0763 26.5388C24.9985 26.6433 24.8913 26.7223 24.7684 26.7657C24.6455 26.8091 24.5125 26.815 24.3863 26.7825C24.2641 26.7498 24.1444 26.7085 24.0282 26.6588C23.7957 26.5613 23.715 26.5238 23.5557 26.4544L23.5463 26.4506C22.4736 25.9823 21.4804 25.3497 20.6025 24.5756C20.3663 24.3694 20.1469 24.1444 19.9219 23.9269C19.1842 23.2204 18.5414 22.4213 18.0094 21.5494L17.8988 21.3713C17.8193 21.2516 17.7551 21.1224 17.7075 20.9869C17.6363 20.7113 17.8219 20.49 17.8219 20.49C17.8219 20.49 18.2775 19.9913 18.4894 19.7213C18.6658 19.4969 18.8304 19.2634 18.9825 19.0219C19.2038 18.6656 19.2732 18.3 19.1569 18.0169C18.6319 16.7344 18.0882 15.4575 17.5294 14.19C17.4188 13.9388 17.0907 13.7588 16.7925 13.7231C16.6913 13.7119 16.59 13.7006 16.4888 13.6931C16.237 13.6806 15.9847 13.685 15.7332 13.7025Z" fill="#C4C4C4"/>
</svg>
